PathFileType	4	(X/Y/Z)	20_2_78_p1_0-271_filt_butterworth.trc
DataRate	CameraRate	NumFrames	NumMarkers	Units	OrigDataRate	OrigDataStartFrame	OrigNumFrames
59.0	59.0	5	27	m	59.0	0	271
Frame#	Time	RHip			RKnee			RAnkle			RBigToe			RSmallToe			RHeel			LHip			LKnee			LAnkle			LBigToe			LSmallToe			LHeel			Neck			Head			Nose			RShoulder			RElbow			RWrist			RThumb			RIndex			RPinky			LShoulder			LElbow			LWrist			LThumb			LIndex			LPinky			
		X1	Y1	Z1	X2	Y2	Z2	X3	Y3	Z3	X4	Y4	Z4	X5	Y5	Z5	X6	Y6	Z6	X7	Y7	Z7	X8	Y8	Z8	X9	Y9	Z9	X10	Y10	Z10	X11	Y11	Z11	X12	Y12	Z12	X13	Y13	Z13	X14	Y14	Z14	X15	Y15	Z15	X16	Y16	Z16	X17	Y17	Z17	X18	Y18	Z18	X19	Y19	Z19	X20	Y20	Z20	X21	Y21	Z21	X22	Y22	Z22	X23	Y23	Z23	X24	Y24	Z24	X25	Y25	Z25	X26	Y26	Z26	X27	Y27	Z27	
0	0.0	0.365698776060824	0.6504826189355305	0.7917077093118483	0.36553579472870823	0.25351632830322707	0.7980875736914566	0.35660658066075135	-0.15622499024010272	0.8167736226075092	0.3134604047867966	-0.15763714456743208	0.6179654310157553	0.3782025014572783	-0.18064419052908096	0.6574791022551042	0.33174542990873546	-0.23803680083611975	0.8964763116993236	0.16901321118153148	0.6423000558654751	0.8148136425881284	0.15024583347484996	0.26658509023068305	0.8198782056245039	0.1435910201560714	-0.12023027053297976	0.8159259290488519	0.1461480601892991	-0.14274549706961084	0.6101090441552993	0.09442072659811399	-0.16753434754015065	0.6739848793384248	0.1548500808461162	-0.19882957112688202	0.8666208826246389	0.26953547389172927	1.2077980405782605	0.7918395789185166	0.2729883873437481	1.4505695023305547	0.752694222785721	0.26323362096168734	1.3364673503978068	0.7011161533912657	0.4106492376496979	1.1189119347409169	0.770604890611426	0.46458920895462985	0.8482734991185716	0.7659896579474688	0.31150329967814855	0.7343394034307894	0.5927876434831908	0.18769395078601744	0.7434286597950338	0.5344018081880539	0.17891102748820015	0.7371751121684904	0.5325573494471836	0.2174403928332943	0.6569184397619001	0.5641394278858995	0.12372416713570039	1.1169820199960383	0.8359164612885508	0.08595557704686109	0.8770457764815173	0.7745401934603503	0.18150565542723093	0.7621458644959829	0.6045724561838676	0.20569390840860524	0.7464972747301641	0.5264752914324398	0.21097941817226135	0.7347488930716362	0.5132366545625606	0.2148461981478841	0.7124180150026267	0.5554449203606303	
1	0.0169491525423728	0.36466177158681273	0.6455219100020582	0.796394840475754	0.363918341681302	0.2506271338689031	0.8005696409672427	0.3565496099858889	-0.15626347509114497	0.8171508655691972	0.31484651473145164	-0.15824239432834442	0.6162854154241141	0.3787506369339704	-0.16840880040639175	0.6415359474932989	0.33231465057219606	-0.2367499149188518	0.8935436444321155	0.16813926489868827	0.6420504778934559	0.8109967486494272	0.14971420724594503	0.26328475423966685	0.8217805734586607	0.14388937421798262	-0.12174689993139559	0.8162985097694507	0.14629937210157262	-0.1418050172325092	0.6098150091909785	0.09461060726562509	-0.16677764847708446	0.6738371631777742	0.15589908520646542	-0.20002974276033697	0.8673831316234083	0.2693441071516387	1.205971600523828	0.792217863868242	0.27171275744265233	1.4495751137518509	0.7576842735109143	0.26036076266440855	1.3382753555379012	0.6926722642745905	0.41065441820950105	1.1201361646890542	0.7653522707507447	0.464229314443313	0.8446939928507304	0.7669701982921675	0.31191995874695067	0.7354379200078025	0.5921370683948858	0.1947753753579581	0.7380550965094939	0.5408318709089597	0.18856399519649886	0.730504710763068	0.5377827504186163	0.22038947542701307	0.6557446792304716	0.5749504498878117	0.12347874961719349	1.1171105844308538	0.8358691719168289	0.08525060317362079	0.8774235354926772	0.7738905190747538	0.1789829581100779	0.7575857970503599	0.6109332210003195	0.21117093239647183	0.7442031314832375	0.5314832196401164	0.2179406233691918	0.7346718459110233	0.5158963846910368	0.22052351513489463	0.6947331641562147	0.5712060242245666	
2	0.0338983050847457	0.3637780559620525	0.6415189474577778	0.800138762353772	0.3625288681758092	0.24824126727132267	0.8025905256929233	0.3564917053675487	-0.15637638202693774	0.8174210002675804	0.3154245991409824	-0.15806073617464342	0.6144611205478958	0.3789289614658744	-0.16033483425925035	0.6310016938482936	0.33278755940080534	-0.23564720994241045	0.8910773879608316	0.16737144671972395	0.6418630153471393	0.8079440981661176	0.14930266335624645	0.26084673356165144	0.8230797497945013	0.14410783511033426	-0.12283374537977784	0.8165938484257809	0.14630830626258165	-0.1414023640130487	0.6096213468078107	0.0946863593676289	-0.1664541938668169	0.6737663754942527	0.15679290191310324	-0.2007482986463488	0.868034384734745	0.26924182726764595	1.2048223683967056	0.7923778004917112	0.27084025867301126	1.448939612811493	0.76120148845371	0.2581660637846287	1.3398746979970888	0.6864079549441153	0.4106377714880555	1.1208996333013164	0.7620316377980787	0.4645478341261982	0.8426341906611964	0.7659816605733907	0.311763181251225	0.7363578321731928	0.5905087150999402	0.19942352040554515	0.7334958122138546	0.5461547971760772	0.19499230926452893	0.7247467868209378	0.5427626562278475	0.22217293277866712	0.6541469596834435	0.5812952021714194	0.1234320620615848	1.1172452045553636	0.8358789701991192	0.08398325492444592	0.8775891984407909	0.775094127279169	0.17782449865246405	0.7540476078953945	0.6150908827326909	0.21622042889215548	0.7419986734889168	0.5356454899600166	0.22378868234384752	0.7326611686876654	0.5191514077709825	0.22400749537035075	0.6821680585192611	0.5811944955654507	
3	0.0508474576271186	0.3630381057524788	0.6383957250492274	0.8030124033902075	0.3613519699757297	0.24631558668141862	0.8041871125801624	0.35643405418227825	-0.15655407306502678	0.8175934788928989	0.3153519629789	-0.15724225982004333	0.6125120829742756	0.37882819671110446	-0.15565947235729521	0.624886845260933	0.3331717472255241	-0.23471736893131542	0.8890407686963886	0.16670578271536338	0.6417339257138173	0.8055849624463441	0.1490023789374166	0.2591897104307925	0.8238297059520676	0.1442537254693623	-0.1235309124845219	0.8168178981956404	0.14620767883919397	-0.14145169745621528	0.6095209157810686	0.09467358774021523	-0.16646707093322202	0.6737588799415535	0.15754248615294347	-0.20103552567551466	0.8685825589937078	0.26920634115266273	1.2042168899005978	0.7923803767934853	0.27030052455696113	1.448593458972403	0.763484033011095	0.2565314144610042	1.3412664729086796	0.681919994710869	0.41056369387812625	1.1212948973581118	0.7602597352537943	0.46530596185397666	0.8417789027179361	0.763585647582015	0.3111989389032346	0.7370508508619509	0.5884480117083629	0.20207670117957977	0.7297154646710665	0.5504850055961403	0.19875415747750072	0.7198956161265592	0.5473351064941638	0.22301391674829346	0.6522416639916857	0.5840257550768324	0.12350808510574389	1.1173452680010088	0.8359139254614633	0.08235332048618162	0.8776220513103525	0.7774821386428012	0.1777775337842466	0.751413241550107	0.6174593064799727	0.220693908684067	0.7397923396876924	0.5392207732440653	0.2285078493190727	0.7290886437899594	0.5230034235889255	0.22575045420592332	0.6738717803758326	0.5865680888164407	
4	0.0677966101694915	0.36243239752402706	0.636074236522945	0.8050886920293656	0.36037224284456343	0.2448069502701243	0.8053962863406234	0.35637784380662485	-0.1567869102229575	0.8176777536353935	0.31478591120871546	-0.1559370549782584	0.6104578392904283	0.3785390643277748	-0.1536198949701649	0.6222019056720621	0.33347480487731324	-0.2339490749100867	0.8873970130497026	0.16613829895633145	0.6416594664807814	0.8038486127982519	0.148804531121118	0.25823236708124575	0.8240844132514014	0.14433436793130283	-0.12387850685202191	0.8169766122568288	0.14603030599827746	-0.1418671776069955	0.6095065748860259	0.09459789721947387	-0.1667193669001736	0.6738010401733702	0.15815879311290004	-0.2009417107384308	0.8690355714353553	0.2692153557196008	1.2040217107392082	0.7922865807781247	0.27002318861663815	1.4484671116975032	0.764770072580056	0.2553387048321915	1.3424517754059824	0.6788051528858805	0.4103965817724781	1.121414513639849	0.7596533066182587	0.46626489147733946	0.8418129391889164	0.7603437621089174	0.3103932034152427	0.7374686870090669	0.586500386330163	0.20317323293086317	0.7266787116440796	0.5539369147758834	0.2004077276206246	0.7159454744643912	0.5513381408368514	0.22313557919592913	0.6501451750260678	0.5839941789441601	0.12363079938654023	1.1173701623992311	0.8359421070299029	0.08056058804567312	0.8776013800858555	0.7803856737348558	0.17858932023528273	0.7495646425335167	0.6184523573411564	0.22444288256061715	0.7374925690200544	0.5424677403441871	0.23208237851771152	0.724326053606302	0.5274541319313933	0.2262047069932831	0.6689934120099962	0.588484558410695	
